<?xml version="1.0" encoding="UTF-8"?>
<svg xmlns="http://www.w3.org/2000/svg" xmlns:xlink="http://www.w3.org/1999/xlink" width="250px" height="64px" viewBox="0 0 247 64" version="1.1">
<g id="surface1">
<path style=" stroke:none;fill-rule:nonzero;fill:rgb(44.705882%,83.529412%,92.941176%);fill-opacity:1;" d="M 0 0.00390625 L 247 0.00390625 L 247 63.996094 L 0 63.996094 Z M 0 0.00390625 "/>
<path style=" stroke:none;fill-rule:nonzero;fill:rgb(16.078431%,16.078431%,16.078431%);fill-opacity:1;" d="M 31.796875 15.175781 C 31.796875 15.816406 31.660156 16.296875 31.382812 16.621094 C 31.125 16.941406 30.699219 17.101562 30.105469 17.101562 C 30.0625 17.550781 29.964844 18.332031 29.816406 19.441406 C 29.601562 20.9375 29.484375 21.773438 29.464844 21.945312 C 27.570312 36.121094 23.617188 43.210938 17.609375 43.210938 C 15.839844 43.210938 14.457031 42.707031 13.453125 41.703125 C 12.472656 40.699219 11.984375 39.4375 11.984375 37.917969 C 11.984375 35.203125 13.132812 32.808594 15.433594 30.734375 C 17.738281 28.636719 20.761719 26.90625 24.511719 25.535156 C 24.746094 24.019531 24.925781 22.660156 25.054688 21.464844 L 25.628906 16.621094 C 24.351562 16.492188 23.160156 16.425781 22.050781 16.425781 C 19.089844 16.425781 16.90625 16.714844 15.5 17.292969 C 14.09375 17.871094 13.390625 18.8125 13.390625 20.117188 C 13.390625 20.757812 13.601562 21.453125 14.03125 22.199219 C 14.15625 22.414062 14.222656 22.640625 14.222656 22.875 C 14.222656 23.324219 13.988281 23.730469 13.519531 24.09375 C 13.070312 24.433594 12.582031 24.605469 12.046875 24.605469 C 11.367188 24.605469 10.84375 24.316406 10.480469 23.742188 C 9.886719 22.757812 9.585938 21.613281 9.585938 20.308594 C 9.585938 15.175781 14.0625 12.609375 23.007812 12.609375 C 25.609375 12.609375 27.929688 12.867188 29.976562 13.378906 C 31.191406 13.679688 31.796875 14.277344 31.796875 15.175781 Z M 18.023438 39.777344 C 19.066406 39.777344 20.113281 38.988281 21.15625 37.40625 C 22.199219 35.824219 23.117188 33.054688 23.902344 29.097656 C 18.707031 31.386719 16.105469 34.1875 16.105469 37.5 C 16.105469 38.226562 16.277344 38.792969 16.617188 39.199219 C 16.957031 39.585938 17.425781 39.777344 18.023438 39.777344 Z M 18.023438 39.777344 "/>
<path style=" stroke:none;fill-rule:nonzero;fill:rgb(16.078431%,16.078431%,16.078431%);fill-opacity:1;" d="M 46.851562 32.625 C 47.125 32.625 47.339844 32.753906 47.488281 33.011719 C 47.660156 33.265625 47.746094 33.621094 47.746094 34.070312 C 47.746094 34.925781 47.542969 35.585938 47.136719 36.058594 C 46.347656 37.019531 45.230469 37.90625 43.78125 38.71875 C 42.355469 39.53125 40.820312 39.9375 39.179688 39.9375 C 36.941406 39.9375 35.207031 39.328125 33.972656 38.109375 C 32.734375 36.890625 32.117188 35.222656 32.117188 33.105469 C 32.117188 31.632812 32.425781 30.261719 33.042969 29 C 33.660156 27.71875 34.515625 26.703125 35.601562 25.953125 C 36.707031 25.207031 37.953125 24.832031 39.339844 24.832031 C 40.574219 24.832031 41.566406 25.207031 42.3125 25.953125 C 43.058594 26.679688 43.429688 27.675781 43.429688 28.9375 C 43.429688 30.414062 42.898438 31.683594 41.832031 32.753906 C 40.789062 33.800781 39.007812 34.636719 36.496094 35.253906 C 37.027344 36.238281 38.039062 36.730469 39.53125 36.730469 C 40.492188 36.730469 41.578125 36.398438 42.792969 35.738281 C 44.027344 35.050781 45.09375 34.164062 45.988281 33.074219 C 46.242188 32.773438 46.53125 32.625 46.851562 32.625 Z M 38.796875 27.972656 C 38.007812 27.972656 37.335938 28.433594 36.78125 29.355469 C 36.25 30.273438 35.984375 31.386719 35.984375 32.691406 L 35.984375 32.753906 C 37.242188 32.453125 38.230469 32.003906 38.957031 31.40625 C 39.679688 30.808594 40.042969 30.113281 40.042969 29.320312 C 40.042969 28.914062 39.925781 28.59375 39.691406 28.359375 C 39.476562 28.101562 39.179688 27.972656 38.796875 27.972656 Z M 38.796875 27.972656 "/>
<path style=" stroke:none;fill-rule:nonzero;fill:rgb(16.078431%,16.078431%,16.078431%);fill-opacity:1;" d="M 47.425781 39.9375 C 46.617188 39.9375 46.039062 39.511719 45.699219 38.65625 C 45.378906 37.800781 45.21875 36.433594 45.21875 34.550781 C 45.21875 31.769531 45.613281 29.128906 46.402344 26.628906 C 46.59375 26.007812 46.902344 25.558594 47.328125 25.28125 C 47.777344 24.980469 48.394531 24.832031 49.183594 24.832031 C 49.609375 24.832031 49.90625 24.882812 50.078125 24.992188 C 50.246094 25.097656 50.332031 25.300781 50.332031 25.601562 C 50.332031 25.941406 50.171875 26.710938 49.855469 27.910156 C 49.640625 28.765625 49.46875 29.515625 49.34375 30.15625 C 49.214844 30.796875 49.109375 31.589844 49.023438 32.527344 C 49.726562 30.691406 50.515625 29.191406 51.386719 28.039062 C 52.261719 26.882812 53.113281 26.058594 53.945312 25.570312 C 54.796875 25.078125 55.574219 24.832031 56.277344 24.832031 C 57.660156 24.832031 58.355469 25.527344 58.355469 26.914062 C 58.355469 27.195312 58.257812 27.867188 58.066406 28.9375 C 57.894531 29.792969 57.8125 30.328125 57.8125 30.539062 C 57.8125 31.289062 58.078125 31.664062 58.609375 31.664062 C 59.207031 31.664062 59.972656 31.191406 60.910156 30.25 C 61.1875 29.972656 61.476562 29.835938 61.773438 29.835938 C 62.050781 29.835938 62.265625 29.964844 62.414062 30.21875 C 62.582031 30.453125 62.667969 30.777344 62.667969 31.183594 C 62.667969 31.972656 62.457031 32.59375 62.03125 33.042969 C 61.433594 33.664062 60.730469 34.195312 59.921875 34.644531 C 59.132812 35.074219 58.289062 35.289062 57.394531 35.289062 C 56.265625 35.289062 55.402344 35 54.808594 34.421875 C 54.230469 33.84375 53.945312 33.0625 53.945312 32.082031 C 53.945312 31.757812 53.976562 31.4375 54.039062 31.117188 C 54.082031 30.691406 54.105469 30.402344 54.105469 30.25 C 54.105469 29.910156 53.988281 29.738281 53.753906 29.738281 C 53.433594 29.738281 53.007812 30.101562 52.472656 30.828125 C 51.964844 31.535156 51.453125 32.476562 50.941406 33.652344 C 50.429688 34.828125 50.011719 36.066406 49.695312 37.371094 C 49.460938 38.378906 49.183594 39.0625 48.863281 39.425781 C 48.566406 39.769531 48.085938 39.9375 47.425781 39.9375 Z M 47.425781 39.9375 "/>
<path style=" stroke:none;fill-rule:nonzero;fill:rgb(16.078431%,16.078431%,16.078431%);fill-opacity:1;" d="M 73.949219 32.625 C 74.226562 32.625 74.441406 32.753906 74.589844 33.011719 C 74.757812 33.265625 74.84375 33.621094 74.84375 34.070312 C 74.84375 34.925781 74.640625 35.585938 74.238281 36.058594 C 73.449219 37.019531 72.332031 37.90625 70.882812 38.71875 C 69.453125 39.53125 67.921875 39.9375 66.28125 39.9375 C 64.042969 39.9375 62.304688 39.328125 61.070312 38.109375 C 59.835938 36.890625 59.21875 35.222656 59.21875 33.105469 C 59.21875 31.632812 59.527344 30.261719 60.144531 29 C 60.761719 27.71875 61.613281 26.703125 62.699219 25.953125 C 63.808594 25.207031 65.054688 24.832031 66.441406 24.832031 C 67.675781 24.832031 68.667969 25.207031 69.410156 25.953125 C 70.15625 26.679688 70.53125 27.675781 70.53125 28.9375 C 70.53125 30.414062 69.996094 31.683594 68.933594 32.753906 C 67.886719 33.800781 66.109375 34.636719 63.59375 35.253906 C 64.128906 36.238281 65.140625 36.730469 66.632812 36.730469 C 67.589844 36.730469 68.675781 36.398438 69.890625 35.738281 C 71.125 35.050781 72.191406 34.164062 73.085938 33.074219 C 73.34375 32.773438 73.628906 32.625 73.949219 32.625 Z M 65.898438 27.972656 C 65.109375 27.972656 64.4375 28.433594 63.882812 29.355469 C 63.351562 30.273438 63.085938 31.386719 63.085938 32.691406 L 63.085938 32.753906 C 64.339844 32.453125 65.332031 32.003906 66.054688 31.40625 C 66.78125 30.808594 67.144531 30.113281 67.144531 29.320312 C 67.144531 28.914062 67.027344 28.59375 66.792969 28.359375 C 66.578125 28.101562 66.28125 27.972656 65.898438 27.972656 Z M 65.898438 27.972656 "/>
<path style=" stroke:none;fill-rule:nonzero;fill:rgb(16.078431%,16.078431%,16.078431%);fill-opacity:1;" d="M 74.523438 39.9375 C 73.714844 39.9375 73.140625 39.511719 72.800781 38.65625 C 72.480469 37.800781 72.320312 36.433594 72.320312 34.550781 C 72.320312 31.769531 72.714844 29.128906 73.503906 26.628906 C 73.695312 26.007812 74.003906 25.558594 74.429688 25.28125 C 74.875 24.980469 75.496094 24.832031 76.28125 24.832031 C 76.707031 24.832031 77.007812 24.882812 77.175781 24.992188 C 77.347656 25.097656 77.433594 25.300781 77.433594 25.601562 C 77.433594 25.941406 77.273438 26.710938 76.953125 27.910156 C 76.742188 28.765625 76.570312 29.515625 76.441406 30.15625 C 76.316406 30.777344 76.207031 31.554688 76.121094 32.496094 C 76.699219 30.828125 77.378906 29.417969 78.167969 28.261719 C 78.976562 27.109375 79.796875 26.253906 80.628906 25.695312 C 81.480469 25.121094 82.28125 24.832031 83.027344 24.832031 C 83.769531 24.832031 84.292969 25.003906 84.589844 25.34375 C 84.910156 25.6875 85.070312 26.210938 85.070312 26.914062 C 85.070312 27.601562 84.867188 28.839844 84.464844 30.636719 C 84.292969 31.40625 84.175781 31.984375 84.113281 32.367188 C 85.175781 29.738281 86.359375 27.824219 87.660156 26.628906 C 88.960938 25.429688 90.171875 24.832031 91.304688 24.832031 C 92.6875 24.832031 93.378906 25.527344 93.378906 26.914062 C 93.378906 27.75 93.144531 29.257812 92.675781 31.4375 C 92.273438 33.300781 92.070312 34.527344 92.070312 35.128906 C 92.070312 35.984375 92.378906 36.410156 92.996094 36.410156 C 93.421875 36.410156 93.921875 36.152344 94.5 35.640625 C 95.09375 35.105469 95.882812 34.25 96.863281 33.074219 C 97.117188 32.773438 97.40625 32.625 97.726562 32.625 C 98.003906 32.625 98.214844 32.753906 98.367188 33.011719 C 98.535156 33.265625 98.621094 33.621094 98.621094 34.070312 C 98.621094 34.925781 98.417969 35.585938 98.015625 36.058594 C 97.097656 37.191406 96.105469 38.121094 95.042969 38.847656 C 93.996094 39.574219 92.804688 39.9375 91.460938 39.9375 C 90.375 39.9375 89.554688 39.628906 89 39.007812 C 88.449219 38.367188 88.171875 37.449219 88.171875 36.25 C 88.171875 35.652344 88.320312 34.582031 88.617188 33.042969 C 88.894531 31.695312 89.035156 30.765625 89.035156 30.25 C 89.035156 29.910156 88.917969 29.738281 88.683594 29.738281 C 88.40625 29.738281 88.011719 30.101562 87.5 30.828125 C 86.988281 31.535156 86.476562 32.476562 85.964844 33.652344 C 85.453125 34.828125 85.039062 36.066406 84.71875 37.371094 C 84.484375 38.398438 84.207031 39.082031 83.886719 39.425781 C 83.589844 39.769531 83.101562 39.9375 82.417969 39.9375 C 81.714844 39.9375 81.183594 39.609375 80.820312 38.945312 C 80.480469 38.261719 80.308594 37.4375 80.308594 36.476562 C 80.308594 35.660156 80.414062 34.484375 80.628906 32.945312 C 80.800781 31.578125 80.882812 30.679688 80.882812 30.25 C 80.882812 29.910156 80.765625 29.738281 80.53125 29.738281 C 80.214844 29.738281 79.808594 30.125 79.320312 30.894531 C 78.828125 31.664062 78.347656 32.648438 77.878906 33.84375 C 77.433594 35.042969 77.070312 36.21875 76.792969 37.371094 C 76.558594 38.378906 76.28125 39.0625 75.964844 39.425781 C 75.664062 39.769531 75.183594 39.9375 74.523438 39.9375 Z M 74.523438 39.9375 "/>
<path style=" stroke:none;fill-rule:nonzero;fill:rgb(16.078431%,16.078431%,16.078431%);fill-opacity:1;" d="M 112.394531 32.691406 C 112.671875 32.691406 112.886719 32.828125 113.035156 33.105469 C 113.203125 33.363281 113.289062 33.695312 113.289062 34.101562 C 113.289062 34.59375 113.214844 34.976562 113.066406 35.253906 C 112.917969 35.535156 112.683594 35.78125 112.363281 35.992188 L 106.226562 40.132812 C 105.417969 44.558594 104.351562 48.042969 103.03125 50.589844 C 101.730469 53.113281 100.070312 54.375 98.046875 54.375 C 96.960938 54.375 96.074219 54.042969 95.394531 53.378906 C 94.710938 52.695312 94.371094 51.808594 94.371094 50.714844 C 94.371094 49.710938 94.59375 48.683594 95.042969 47.636719 C 95.511719 46.589844 96.363281 45.390625 97.597656 44.042969 C 98.855469 42.675781 100.625 41.113281 102.902344 39.363281 L 103 38.625 C 103.148438 37.832031 103.320312 36.699219 103.511719 35.222656 C 103.085938 36.761719 102.488281 37.941406 101.722656 38.753906 C 100.953125 39.542969 100.144531 39.9375 99.292969 39.9375 C 98.332031 39.9375 97.546875 39.5 96.925781 38.625 C 96.332031 37.726562 96.03125 36.613281 96.03125 35.289062 C 96.03125 33.683594 96.140625 32.21875 96.351562 30.894531 C 96.566406 29.546875 96.917969 28.125 97.40625 26.628906 C 97.621094 25.984375 97.917969 25.527344 98.300781 25.246094 C 98.683594 24.96875 99.292969 24.832031 100.125 24.832031 C 100.589844 24.832031 100.910156 24.90625 101.082031 25.054688 C 101.273438 25.207031 101.371094 25.429688 101.371094 25.730469 C 101.371094 25.898438 101.253906 26.476562 101.019531 27.460938 C 100.804688 28.253906 100.632812 28.96875 100.507812 29.609375 C 100.335938 30.488281 100.1875 31.332031 100.058594 32.144531 C 99.929688 32.9375 99.867188 33.585938 99.867188 34.101562 C 99.867188 34.914062 100.089844 35.320312 100.539062 35.320312 C 100.859375 35.320312 101.253906 35 101.722656 34.359375 C 102.210938 33.714844 102.722656 32.742188 103.253906 31.4375 C 103.808594 30.132812 104.339844 28.53125 104.851562 26.628906 C 105.023438 25.984375 105.277344 25.527344 105.621094 25.246094 C 105.980469 24.96875 106.515625 24.832031 107.21875 24.832031 C 107.707031 24.832031 108.046875 24.894531 108.242188 25.023438 C 108.433594 25.152344 108.527344 25.367188 108.527344 25.664062 C 108.527344 26.199219 108.25 28.039062 107.695312 31.183594 L 106.867188 36.347656 C 108.507812 35.105469 110.105469 33.972656 111.660156 32.945312 C 111.9375 32.773438 112.183594 32.691406 112.394531 32.691406 Z M 98.398438 51.261719 C 98.929688 51.261719 99.527344 50.640625 100.1875 49.402344 C 100.847656 48.160156 101.507812 46.097656 102.167969 43.210938 C 100.527344 44.601562 99.335938 45.871094 98.589844 47.027344 C 97.863281 48.160156 97.503906 49.15625 97.503906 50.011719 C 97.503906 50.375 97.566406 50.671875 97.695312 50.910156 C 97.84375 51.144531 98.078125 51.261719 98.398438 51.261719 Z M 98.398438 51.261719 "/>
<path style=" stroke:none;fill-rule:nonzero;fill:rgb(16.078431%,16.078431%,16.078431%);fill-opacity:1;" d="M 125.6875 39.9375 C 124.902344 39.9375 124.335938 39.769531 123.996094 39.425781 C 123.65625 39.0625 123.484375 38.386719 123.484375 37.40625 C 123.484375 36.742188 123.546875 35.941406 123.675781 35 C 123.804688 34.058594 124.027344 32.636719 124.347656 30.734375 C 124.390625 30.476562 124.558594 29.4375 124.859375 27.621094 C 125.15625 25.78125 125.421875 23.859375 125.65625 21.847656 C 125.871094 20.136719 125.976562 18.855469 125.976562 18 C 125.976562 17.035156 125.625 16.554688 124.921875 16.554688 C 124.390625 16.554688 123.71875 16.84375 122.910156 17.421875 C 122.121094 17.976562 121.269531 18.875 120.351562 20.117188 C 120.054688 20.523438 119.722656 20.726562 119.363281 20.726562 C 119.0625 20.726562 118.796875 20.585938 118.5625 20.308594 C 118.347656 20.007812 118.242188 19.675781 118.242188 19.3125 C 118.242188 18.949219 118.308594 18.609375 118.433594 18.289062 C 118.5625 17.945312 118.796875 17.539062 119.136719 17.070312 C 120.183594 15.636719 121.34375 14.535156 122.621094 13.765625 C 123.898438 12.972656 125.242188 12.578125 126.648438 12.578125 C 127.820312 12.578125 128.691406 12.941406 129.269531 13.667969 C 129.863281 14.394531 130.164062 15.453125 130.164062 16.84375 C 130.164062 18.085938 129.992188 19.878906 129.652344 22.234375 C 130.71875 19.066406 132.070312 16.671875 133.710938 15.046875 C 135.351562 13.402344 137.277344 12.578125 139.496094 12.578125 C 141.242188 12.578125 142.550781 13.082031 143.425781 14.085938 C 144.320312 15.070312 144.769531 16.394531 144.769531 18.0625 C 144.769531 19.003906 144.628906 20.148438 144.351562 21.496094 L 142.402344 30.667969 C 142.191406 31.738281 142.082031 32.65625 142.082031 33.425781 C 142.082031 34.324219 142.285156 35 142.691406 35.449219 C 143.117188 35.898438 143.703125 36.121094 144.449219 36.121094 C 145.152344 36.121094 145.832031 35.886719 146.492188 35.417969 C 147.175781 34.945312 147.972656 34.164062 148.890625 33.074219 C 149.144531 32.773438 149.433594 32.625 149.753906 32.625 C 150.03125 32.625 150.242188 32.753906 150.390625 33.011719 C 150.5625 33.265625 150.648438 33.621094 150.648438 34.070312 C 150.648438 34.902344 150.445312 35.566406 150.039062 36.058594 C 148.933594 37.40625 147.835938 38.386719 146.75 39.007812 C 145.664062 39.628906 144.523438 39.9375 143.328125 39.9375 C 141.519531 39.9375 140.101562 39.402344 139.078125 38.335938 C 138.058594 37.246094 137.546875 35.789062 137.546875 33.972656 C 137.546875 33.265625 137.597656 32.496094 137.707031 31.664062 C 137.832031 30.828125 138.035156 29.769531 138.3125 28.488281 L 139.589844 22.617188 C 139.632812 22.425781 139.707031 22.082031 139.8125 21.589844 C 139.921875 21.097656 140.007812 20.640625 140.070312 20.210938 C 140.132812 19.761719 140.164062 19.324219 140.164062 18.898438 C 140.164062 18.210938 139.972656 17.667969 139.589844 17.261719 C 139.207031 16.855469 138.664062 16.652344 137.960938 16.652344 C 136.683594 16.652344 135.402344 17.335938 134.125 18.703125 C 132.847656 20.074219 131.664062 22.285156 130.578125 25.34375 C 129.492188 28.378906 128.640625 32.273438 128.023438 37.019531 C 127.871094 38.109375 127.648438 38.871094 127.351562 39.296875 C 127.074219 39.726562 126.519531 39.9375 125.6875 39.9375 Z M 125.6875 39.9375 "/>
<path style=" stroke:none;fill-rule:nonzero;fill:rgb(16.078431%,16.078431%,16.078431%);fill-opacity:1;" d="M 152.246094 22.714844 C 151.351562 22.714844 150.679688 22.511719 150.234375 22.105469 C 149.785156 21.675781 149.5625 21.089844 149.5625 20.339844 C 149.5625 19.59375 149.847656 18.972656 150.425781 18.480469 C 151.019531 17.964844 151.753906 17.710938 152.628906 17.710938 C 153.417969 17.710938 154.058594 17.902344 154.546875 18.289062 C 155.035156 18.671875 155.28125 19.21875 155.28125 19.921875 C 155.28125 20.777344 155.003906 21.464844 154.449219 21.976562 C 153.898438 22.46875 153.160156 22.714844 152.246094 22.714844 Z M 151.988281 39.9375 C 150.605469 39.9375 149.59375 39.445312 148.953125 38.464844 C 148.335938 37.480469 148.027344 36.175781 148.027344 34.550781 C 148.027344 33.585938 148.144531 32.359375 148.378906 30.859375 C 148.632812 29.34375 148.953125 27.933594 149.335938 26.628906 C 149.53125 25.941406 149.785156 25.472656 150.105469 25.214844 C 150.425781 24.960938 150.9375 24.832031 151.636719 24.832031 C 152.726562 24.832031 153.269531 25.195312 153.269531 25.921875 C 153.269531 26.457031 153.066406 27.695312 152.660156 29.640625 C 152.148438 31.996094 151.894531 33.585938 151.894531 34.421875 C 151.894531 35.0625 151.980469 35.554688 152.148438 35.898438 C 152.320312 36.238281 152.609375 36.410156 153.011719 36.410156 C 153.394531 36.410156 153.875 36.144531 154.449219 35.609375 C 155.027344 35.074219 155.792969 34.230469 156.75 33.074219 C 157.007812 32.773438 157.296875 32.625 157.613281 32.625 C 157.890625 32.625 158.105469 32.753906 158.253906 33.011719 C 158.425781 33.265625 158.507812 33.621094 158.507812 34.070312 C 158.507812 34.925781 158.308594 35.585938 157.902344 36.058594 C 155.792969 38.644531 153.824219 39.9375 151.988281 39.9375 Z M 151.988281 39.9375 "/>
<path style=" stroke:none;fill-rule:nonzero;fill:rgb(16.078431%,16.078431%,16.078431%);fill-opacity:1;" d="M 162.023438 39.9375 C 159.9375 39.9375 158.308594 39.351562 157.136719 38.175781 C 155.984375 36.976562 155.410156 35.40625 155.410156 33.460938 C 155.410156 31.726562 155.75 30.210938 156.433594 28.90625 C 157.113281 27.601562 158 26.59375 159.085938 25.890625 C 160.171875 25.183594 161.3125 24.832031 162.503906 24.832031 C 163.675781 24.832031 164.582031 25.183594 165.21875 25.890625 C 165.882812 26.574219 166.210938 27.460938 166.210938 28.550781 C 166.210938 29.449219 166.007812 30.210938 165.605469 30.828125 C 165.21875 31.449219 164.710938 31.757812 164.070312 31.757812 C 163.664062 31.757812 163.335938 31.664062 163.078125 31.472656 C 162.84375 31.277344 162.726562 31.011719 162.726562 30.667969 C 162.726562 30.519531 162.75 30.347656 162.792969 30.15625 C 162.835938 29.964844 162.867188 29.824219 162.886719 29.738281 C 162.996094 29.417969 163.046875 29.117188 163.046875 28.839844 C 163.046875 28.5625 162.972656 28.347656 162.824219 28.199219 C 162.695312 28.050781 162.503906 27.972656 162.25 27.972656 C 161.757812 27.972656 161.300781 28.199219 160.875 28.648438 C 160.449219 29.074219 160.105469 29.664062 159.851562 30.414062 C 159.597656 31.160156 159.46875 31.984375 159.46875 32.882812 C 159.46875 35.363281 160.542969 36.601562 162.695312 36.601562 C 163.570312 36.601562 164.507812 36.3125 165.507812 35.738281 C 166.53125 35.136719 167.53125 34.25 168.511719 33.074219 C 168.769531 32.773438 169.054688 32.625 169.375 32.625 C 169.652344 32.625 169.863281 32.753906 170.015625 33.011719 C 170.183594 33.265625 170.269531 33.621094 170.269531 34.070312 C 170.269531 34.882812 170.066406 35.542969 169.664062 36.058594 C 168.660156 37.296875 167.457031 38.261719 166.050781 38.945312 C 164.667969 39.609375 163.324219 39.9375 162.023438 39.9375 Z M 162.023438 39.9375 "/>
<path style=" stroke:none;fill-rule:nonzero;fill:rgb(16.078431%,16.078431%,16.078431%);fill-opacity:1;" d="M 185.417969 32.625 C 185.695312 32.625 185.90625 32.753906 186.058594 33.011719 C 186.226562 33.265625 186.3125 33.621094 186.3125 34.070312 C 186.3125 34.925781 186.109375 35.585938 185.707031 36.058594 C 184.726562 37.191406 183.714844 38.121094 182.667969 38.847656 C 181.648438 39.574219 180.476562 39.9375 179.152344 39.9375 C 178.066406 39.9375 177.246094 39.628906 176.695312 39.007812 C 176.140625 38.367188 175.863281 37.449219 175.863281 36.25 C 175.863281 35.652344 176.011719 34.582031 176.308594 33.042969 C 176.585938 31.695312 176.726562 30.765625 176.726562 30.25 C 176.726562 29.910156 176.609375 29.738281 176.375 29.738281 C 176.097656 29.738281 175.703125 30.101562 175.191406 30.828125 C 174.679688 31.535156 174.167969 32.476562 173.65625 33.652344 C 173.144531 34.828125 172.730469 36.066406 172.410156 37.371094 C 172.007812 39.082031 171.003906 39.9375 169.40625 39.9375 C 168.769531 39.9375 168.34375 39.714844 168.128906 39.265625 C 167.9375 38.792969 167.839844 37.960938 167.839844 36.761719 C 167.839844 36.078125 167.851562 35.535156 167.875 35.128906 L 167.90625 32.5625 C 167.90625 29.269531 168.234375 25.835938 168.894531 22.265625 C 169.578125 18.695312 170.566406 15.699219 171.867188 13.285156 C 173.1875 10.84375 174.765625 9.625 176.597656 9.625 C 177.578125 9.625 178.367188 10.054688 178.960938 10.910156 C 179.582031 11.742188 179.890625 12.835938 179.890625 14.179688 C 179.890625 16.339844 179.261719 18.585938 178.003906 20.917969 C 176.746094 23.226562 174.703125 25.933594 171.867188 29.03125 C 171.804688 30.144531 171.773438 31.289062 171.773438 32.464844 C 172.476562 30.648438 173.253906 29.171875 174.105469 28.039062 C 174.976562 26.882812 175.832031 26.058594 176.660156 25.570312 C 177.511719 25.078125 178.292969 24.832031 178.996094 24.832031 C 180.378906 24.832031 181.070312 25.527344 181.070312 26.914062 C 181.070312 27.75 180.835938 29.257812 180.367188 31.4375 C 179.964844 33.300781 179.761719 34.527344 179.761719 35.128906 C 179.761719 35.984375 180.070312 36.410156 180.6875 36.410156 C 181.113281 36.410156 181.613281 36.152344 182.191406 35.640625 C 182.785156 35.105469 183.574219 34.25 184.554688 33.074219 C 184.8125 32.773438 185.097656 32.625 185.417969 32.625 Z M 175.925781 12.800781 C 175.542969 12.800781 175.117188 13.359375 174.648438 14.46875 C 174.179688 15.5625 173.722656 17.046875 173.273438 18.929688 C 172.847656 20.789062 172.496094 22.820312 172.21875 25.023438 C 173.539062 23.460938 174.625 21.761719 175.480469 19.921875 C 176.351562 18.085938 176.789062 16.417969 176.789062 14.917969 C 176.789062 14.234375 176.714844 13.710938 176.566406 13.347656 C 176.417969 12.984375 176.203125 12.800781 175.925781 12.800781 Z M 175.925781 12.800781 "/>
<path style=" stroke:none;fill-rule:nonzero;fill:rgb(16.078431%,16.078431%,16.078431%);fill-opacity:1;" d="M 196.875 32.453125 C 196.875 32.425781 196.875 32.402344 196.875 32.371094 C 196.875 31.328125 196.609375 30.296875 196.09375 29.390625 L 197.453125 28.585938 C 196.972656 27.769531 196.351562 27.050781 195.613281 26.460938 L 194.648438 27.679688 C 193.800781 26.992188 192.792969 26.558594 191.734375 26.402344 L 191.953125 24.875 C 191.019531 24.742188 190.070312 24.78125 189.152344 24.992188 L 189.5 26.5 C 188.957031 26.628906 188.421875 26.835938 187.910156 27.128906 C 187.472656 27.378906 187.070312 27.683594 186.710938 28.027344 L 185.632812 26.882812 C 184.949219 27.527344 184.386719 28.296875 183.976562 29.152344 L 185.421875 29.851562 C 185.0625 30.632812 184.867188 31.488281 184.867188 32.371094 C 184.867188 32.5625 184.878906 32.757812 184.898438 32.949219 L 183.246094 33.082031 C 183.320312 34.027344 183.566406 34.949219 183.980469 35.800781 L 185.503906 35.058594 C 185.972656 36.003906 186.675781 36.804688 187.550781 37.390625 L 186.589844 38.816406 C 187.375 39.347656 188.242188 39.730469 189.164062 39.9375 L 189.542969 38.246094 C 190.5625 38.476562 191.628906 38.4375 192.632812 38.128906 L 193.144531 39.777344 C 194.042969 39.492188 194.882812 39.042969 195.621094 38.453125 L 194.5625 37.117188 C 195.390625 36.464844 196.035156 35.609375 196.433594 34.632812 C 196.433594 34.632812 196.433594 34.632812 196.433594 34.625 L 197.976562 35.226562 C 198.316406 34.34375 198.492188 33.40625 198.488281 32.460938 L 198.488281 32.449219 Z M 195.4375 32.453125 C 195.429688 32.875 195.359375 33.292969 195.246094 33.691406 C 195.207031 33.835938 195.152344 33.972656 195.097656 34.113281 C 194.785156 34.875 194.285156 35.515625 193.667969 35.996094 C 193.398438 36.210938 193.105469 36.390625 192.792969 36.535156 C 192.773438 36.539062 192.757812 36.550781 192.742188 36.558594 C 192.695312 36.574219 192.65625 36.597656 192.609375 36.613281 C 192.578125 36.625 192.554688 36.636719 192.527344 36.644531 C 192.492188 36.65625 192.457031 36.671875 192.425781 36.683594 C 192.394531 36.695312 192.359375 36.707031 192.332031 36.714844 C 192.296875 36.726562 192.269531 36.738281 192.234375 36.746094 C 191.492188 36.980469 190.679688 37.027344 189.871094 36.839844 C 189.335938 36.71875 188.824219 36.5 188.363281 36.191406 C 187.703125 35.753906 187.160156 35.148438 186.804688 34.4375 C 186.550781 33.9375 186.394531 33.394531 186.335938 32.839844 C 186.320312 32.691406 186.3125 32.535156 186.3125 32.378906 C 186.3125 31.726562 186.453125 31.078125 186.722656 30.480469 C 186.746094 30.4375 186.761719 30.394531 186.785156 30.347656 C 186.792969 30.332031 186.804688 30.320312 186.808594 30.304688 C 186.820312 30.285156 186.828125 30.269531 186.839844 30.25 C 186.867188 30.199219 186.890625 30.152344 186.917969 30.101562 C 187.132812 29.730469 187.398438 29.390625 187.703125 29.09375 C 188.296875 28.515625 189.042969 28.105469 189.851562 27.921875 C 189.894531 27.910156 189.949219 27.898438 189.992188 27.894531 C 190.011719 27.886719 190.027344 27.886719 190.046875 27.882812 C 190.113281 27.871094 190.183594 27.859375 190.246094 27.847656 C 190.246094 27.847656 190.253906 27.847656 190.253906 27.847656 C 190.316406 27.835938 190.386719 27.828125 190.449219 27.824219 C 190.460938 27.824219 190.476562 27.824219 190.488281 27.816406 C 190.539062 27.8125 190.597656 27.8125 190.652344 27.804688 C 190.667969 27.804688 190.683594 27.804688 190.703125 27.804688 C 190.753906 27.804688 190.800781 27.800781 190.851562 27.800781 C 190.875 27.800781 190.890625 27.800781 190.914062 27.800781 C 190.960938 27.800781 191.011719 27.800781 191.058594 27.804688 C 191.082031 27.804688 191.097656 27.804688 191.121094 27.804688 C 191.167969 27.804688 191.21875 27.8125 191.265625 27.816406 C 191.285156 27.816406 191.308594 27.824219 191.324219 27.824219 C 191.382812 27.828125 191.445312 27.835938 191.503906 27.847656 C 191.507812 27.847656 191.515625 27.847656 191.527344 27.847656 C 192.335938 27.960938 193.109375 28.304688 193.742188 28.824219 C 194.1875 29.1875 194.5625 29.625 194.84375 30.128906 C 195.230469 30.816406 195.429688 31.59375 195.429688 32.378906 C 195.4375 32.402344 195.4375 32.425781 195.4375 32.453125 Z M 195.4375 32.453125 "/>
<path style=" stroke:none;fill-rule:nonzero;fill:rgb(16.078431%,16.078431%,16.078431%);fill-opacity:1;" d="M 188.484375 32.359375 L 189.828125 31.910156 L 189.960938 31.152344 L 187.769531 32.007812 L 187.660156 32.644531 L 189.550781 33.5 L 189.671875 32.800781 Z M 188.484375 32.359375 "/>
<path style=" stroke:none;fill-rule:nonzero;fill:rgb(16.078431%,16.078431%,16.078431%);fill-opacity:1;" d="M 191.445312 30.332031 L 189.648438 34.09375 L 190.230469 34.09375 L 192.027344 30.332031 Z M 191.445312 30.332031 "/>
<path style=" stroke:none;fill-rule:nonzero;fill:rgb(16.078431%,16.078431%,16.078431%);fill-opacity:1;" d="M 192.042969 31.886719 L 193.21875 32.328125 L 191.886719 32.777344 L 191.757812 33.535156 L 193.933594 32.679688 L 194.042969 32.042969 L 192.164062 31.1875 Z M 192.042969 31.886719 "/>
<path style=" stroke:none;fill-rule:nonzero;fill:rgb(16.078431%,16.078431%,16.078431%);fill-opacity:1;" d="M 207.851562 32.625 C 208.128906 32.625 208.34375 32.753906 208.492188 33.011719 C 208.660156 33.265625 208.746094 33.621094 208.746094 34.070312 C 208.746094 34.925781 208.542969 35.585938 208.140625 36.058594 C 207.222656 37.191406 206.222656 38.121094 205.136719 38.847656 C 204.070312 39.574219 202.855469 39.9375 201.492188 39.9375 C 199.617188 39.9375 198.222656 39.082031 197.304688 37.371094 C 196.410156 35.660156 195.964844 33.449219 195.964844 30.734375 C 195.964844 28.125 196.292969 25.152344 196.953125 21.816406 C 197.636719 18.480469 198.625 15.613281 199.925781 13.21875 C 201.246094 10.824219 202.8125 9.625 204.625 9.625 C 205.648438 9.625 206.445312 10.109375 207.019531 11.070312 C 207.617188 12.011719 207.914062 13.367188 207.914062 15.144531 C 207.914062 17.6875 207.210938 20.640625 205.808594 23.996094 C 204.402344 27.355469 202.492188 30.679688 200.085938 33.972656 C 200.234375 34.847656 200.480469 35.480469 200.820312 35.863281 C 201.164062 36.230469 201.609375 36.410156 202.164062 36.410156 C 203.035156 36.410156 203.804688 36.164062 204.464844 35.671875 C 205.125 35.160156 205.964844 34.292969 206.988281 33.074219 C 207.246094 32.773438 207.53125 32.625 207.851562 32.625 Z M 203.921875 12.800781 C 203.429688 12.800781 202.878906 13.691406 202.257812 15.464844 C 201.640625 17.238281 201.097656 19.441406 200.628906 22.074219 C 200.160156 24.703125 199.90625 27.226562 199.863281 29.640625 C 201.375 27.140625 202.578125 24.636719 203.472656 22.136719 C 204.367188 19.613281 204.816406 17.3125 204.816406 15.238281 C 204.816406 13.613281 204.519531 12.800781 203.921875 12.800781 Z M 203.921875 12.800781 "/>
<path style=" stroke:none;fill-rule:nonzero;fill:rgb(16.078431%,16.078431%,16.078431%);fill-opacity:1;" d="M 210.089844 39.9375 C 208.769531 39.9375 207.714844 39.457031 206.925781 38.496094 C 206.136719 37.53125 205.742188 36.273438 205.742188 34.710938 C 205.742188 33 206.136719 31.386719 206.925781 29.867188 C 207.714844 28.328125 208.757812 27.097656 210.058594 26.179688 C 211.378906 25.238281 212.773438 24.765625 214.242188 24.765625 C 214.710938 24.765625 215.019531 24.863281 215.171875 25.054688 C 215.339844 25.226562 215.480469 25.546875 215.585938 26.019531 C 216.03125 25.933594 216.5 25.890625 216.992188 25.890625 C 218.035156 25.890625 218.558594 26.265625 218.558594 27.011719 C 218.558594 27.460938 218.398438 28.53125 218.078125 30.21875 C 217.589844 32.679688 217.34375 34.390625 217.34375 35.351562 C 217.34375 35.671875 217.417969 35.929688 217.566406 36.121094 C 217.738281 36.3125 217.949219 36.410156 218.207031 36.410156 C 218.609375 36.410156 219.101562 36.152344 219.675781 35.640625 C 220.25 35.105469 221.027344 34.25 222.007812 33.074219 C 222.265625 32.773438 222.550781 32.625 222.871094 32.625 C 223.148438 32.625 223.363281 32.753906 223.511719 33.011719 C 223.679688 33.265625 223.765625 33.621094 223.765625 34.070312 C 223.765625 34.925781 223.5625 35.585938 223.160156 36.058594 C 222.285156 37.148438 221.359375 38.066406 220.378906 38.816406 C 219.398438 39.566406 218.453125 39.9375 217.535156 39.9375 C 216.832031 39.9375 216.183594 39.703125 215.585938 39.234375 C 215.011719 38.742188 214.574219 38.078125 214.277344 37.246094 C 213.167969 39.039062 211.773438 39.9375 210.089844 39.9375 Z M 211.238281 36.699219 C 211.707031 36.699219 212.15625 36.421875 212.582031 35.863281 C 213.007812 35.308594 213.316406 34.570312 213.507812 33.652344 L 214.691406 27.75 C 213.796875 27.769531 212.964844 28.113281 212.199219 28.777344 C 211.453125 29.417969 210.855469 30.273438 210.410156 31.34375 C 209.960938 32.410156 209.738281 33.546875 209.738281 34.742188 C 209.738281 35.40625 209.867188 35.898438 210.121094 36.21875 C 210.398438 36.539062 210.769531 36.699219 211.238281 36.699219 Z M 211.238281 36.699219 "/>
<path style=" stroke:none;fill-rule:nonzero;fill:rgb(16.078431%,16.078431%,16.078431%);fill-opacity:1;" d="M 227.121094 40.644531 C 226.015625 40.644531 225.164062 40.386719 224.566406 39.875 C 223.992188 39.363281 223.703125 38.785156 223.703125 38.144531 C 223.703125 37.585938 223.90625 37.105469 224.308594 36.699219 C 224.714844 36.292969 225.3125 36.089844 226.101562 36.089844 C 226.375 36.089844 226.695312 36.121094 227.058594 36.1875 C 227.441406 36.230469 227.730469 36.261719 227.921875 36.28125 C 227.898438 35.726562 227.773438 35.203125 227.539062 34.710938 C 227.324219 34.21875 227.046875 33.75 226.707031 33.300781 C 226.367188 32.828125 226.046875 32.421875 225.75 32.082031 C 225.085938 33.34375 224.425781 34.390625 223.765625 35.222656 C 223.128906 36.058594 222.425781 36.847656 221.65625 37.597656 C 221.273438 37.980469 220.871094 38.175781 220.441406 38.175781 C 220.101562 38.175781 219.824219 38.058594 219.613281 37.820312 C 219.398438 37.566406 219.292969 37.253906 219.292969 36.890625 C 219.292969 36.464844 219.441406 36.066406 219.738281 35.703125 L 220.15625 35.191406 C 221.328125 33.738281 222.210938 32.539062 222.808594 31.597656 C 223.171875 30.980469 223.597656 30.15625 224.085938 29.128906 C 224.578125 28.082031 225.054688 27 225.523438 25.890625 C 225.929688 24.949219 226.769531 24.476562 228.050781 24.476562 C 228.644531 24.476562 229.0625 24.53125 229.296875 24.636719 C 229.53125 24.746094 229.648438 24.917969 229.648438 25.152344 C 229.648438 25.28125 229.605469 25.484375 229.519531 25.761719 C 229.433594 26.039062 229.316406 26.316406 229.167969 26.59375 C 228.785156 27.363281 228.59375 28.015625 228.59375 28.550781 C 228.59375 28.871094 228.699219 29.226562 228.910156 29.609375 C 229.144531 29.996094 229.496094 30.476562 229.964844 31.054688 C 230.648438 31.953125 231.160156 32.722656 231.5 33.363281 C 231.863281 33.984375 232.042969 34.667969 232.042969 35.417969 C 232.042969 35.628906 232.023438 35.929688 231.980469 36.3125 C 233.023438 35.90625 234.25 34.828125 235.65625 33.074219 C 235.910156 32.773438 236.199219 32.625 236.519531 32.625 C 236.792969 32.625 237.007812 32.753906 237.15625 33.011719 C 237.328125 33.265625 237.414062 33.621094 237.414062 34.070312 C 237.414062 34.882812 237.210938 35.542969 236.804688 36.058594 C 235.742188 37.382812 234.71875 38.292969 233.738281 38.785156 C 232.777344 39.253906 231.585938 39.511719 230.160156 39.554688 C 229.304688 40.28125 228.292969 40.644531 227.121094 40.644531 Z M 227.121094 40.644531 "/>
</g>
</svg>
